<?xml version="1.0" encoding="UTF-8"?>
<svg width="40px" height="40px" viewBox="0 0 40 40" version="1.1" xmlns="http://www.w3.org/2000/svg" xmlns:xlink="http://www.w3.org/1999/xlink">
    <title>account_circle_FILL0_wght400_GRAD0_opsz48</title>
    <g id="Page-1" stroke="none" stroke-width="1" fill="none" fill-rule="evenodd">
        <g id="Large" transform="translate(-375.000000, -124.000000)" fill="#FFFFFF" fill-rule="nonzero">
            <g id="Group-6" transform="translate(160.000000, 115.000000)">
                <g id="account_circle_FILL0_wght400_GRAD0_opsz48" transform="translate(215.000000, 9.000000)">
                    <path d="M7.1,31.25 C9.2,29.7833333 11.2833333,28.6583333 13.35,27.875 C15.4166667,27.0916667 17.6333333,26.7 20,26.7 C22.3666667,26.7 24.5916667,27.0916667 26.675,27.875 C28.7583333,28.6583333 30.85,29.7833333 32.95,31.25 C34.4166667,29.45 35.4583333,27.6333333 36.075,25.8 C36.6916667,23.9666667 37,22.0333333 37,20 C37,15.1666667 35.375,11.125 32.125,7.875 C28.875,4.625 24.8333333,3 20,3 C15.1666667,3 11.125,4.625 7.875,7.875 C4.625,11.125 3,15.1666667 3,20 C3,22.0333333 3.31666667,23.9666667 3.95,25.8 C4.58333333,27.6333333 5.63333333,29.45 7.1,31.25 Z M19.9907,21.5 C18.0635667,21.5 16.4416667,20.8385667 15.125,19.5157 C13.8083333,18.1928333 13.15,16.5678333 13.15,14.6407 C13.15,12.7135667 13.8114333,11.0916667 15.1343,9.775 C16.4571667,8.45833333 18.0821667,7.8 20.0093,7.8 C21.9364333,7.8 23.5583333,8.46143333 24.875,9.7843 C26.1916667,11.1071667 26.85,12.7321667 26.85,14.6593 C26.85,16.5864333 26.1885667,18.2083333 24.8657,19.525 C23.5428333,20.8416667 21.9178333,21.5 19.9907,21.5 Z M20.0234,40 C17.2744667,40 14.6833333,39.475 12.25,38.425 C9.81666667,37.375 7.69166667,35.9416667 5.875,34.125 C4.05833333,32.3083333 2.625,30.1872333 1.575,27.7617 C0.525,25.3361667 0,22.7445 0,19.9867 C0,17.2289 0.525,14.6416667 1.575,12.225 C2.625,9.80833333 4.05833333,7.69166667 5.875,5.875 C7.69166667,4.05833333 9.81276667,2.625 12.2383,1.575 C14.6638333,0.525 17.2555,0 20.0133,0 C22.7711,0 25.3583333,0.525 27.775,1.575 C30.1916667,2.625 32.3083333,4.05833333 34.125,5.875 C35.9416667,7.69166667 37.375,9.80886667 38.425,12.2266 C39.475,14.6443333 40,17.2276667 40,19.9766 C40,22.7255333 39.475,25.3166667 38.425,27.75 C37.375,30.1833333 35.9416667,32.3083333 34.125,34.125 C32.3083333,35.9416667 30.1911333,37.375 27.7734,38.425 C25.3556667,39.475 22.7723333,40 20.0234,40 Z M20,37 C21.8333333,37 23.625,36.7333333 25.375,36.2 C27.125,35.6666667 28.85,34.7333333 30.55,33.4 C28.85,32.2 27.1166667,31.2833333 25.35,30.65 C23.5833333,30.0166667 21.8,29.7 20,29.7 C18.2,29.7 16.4166667,30.0166667 14.65,30.65 C12.8833333,31.2833333 11.15,32.2 9.45,33.4 C11.15,34.7333333 12.875,35.6666667 14.625,36.2 C16.375,36.7333333 18.1666667,37 20,37 Z M20,18.5 C21.1333333,18.5 22.0583333,18.1416667 22.775,17.425 C23.4916667,16.7083333 23.85,15.7833333 23.85,14.65 C23.85,13.5166667 23.4916667,12.5916667 22.775,11.875 C22.0583333,11.1583333 21.1333333,10.8 20,10.8 C18.8666667,10.8 17.9416667,11.1583333 17.225,11.875 C16.5083333,12.5916667 16.15,13.5166667 16.15,14.65 C16.15,15.7833333 16.5083333,16.7083333 17.225,17.425 C17.9416667,18.1416667 18.8666667,18.5 20,18.5 Z" id="Shape"></path>
                </g>
            </g>
        </g>
    </g>
</svg>