<?xml version="1.0" encoding="UTF-8"?>
<svg width="30px" height="33px" viewBox="0 0 30 33" version="1.1" xmlns="http://www.w3.org/2000/svg" xmlns:xlink="http://www.w3.org/1999/xlink">
    <title>share_FILL0_wght400_GRAD0_opsz48</title>
    <g id="Page-1" stroke="none" stroke-width="1" fill="none" fill-rule="evenodd">
        <g id="Large" transform="translate(-187.000000, -29.000000)" fill="#FFFFFF" fill-rule="nonzero">
            <g id="share_FILL0_wght400_GRAD0_opsz48" transform="translate(187.000000, 29.000000)">
                <path d="M25.2565881,33 C23.9389736,33 22.8190014,32.5414925 21.8966713,31.6244775 C20.9743412,30.707435 20.5131761,29.5938913 20.5131761,28.2838462 C20.5131761,28.1004487 20.5339806,27.8761587 20.5755895,27.6109762 C20.6171983,27.3457937 20.6796117,27.107135 20.7628294,26.895 L8.15533981,19.635 C7.73925104,20.1025 7.2260749,20.480625 6.61581137,20.769375 C6.00554785,21.058125 5.3814147,21.2025 4.74341193,21.2025 C3.4257975,21.2025 2.30582524,20.7453125 1.38349515,19.8309375 C0.461165049,18.9165625 0,17.80625 0,16.5 C0,15.19375 0.461165049,14.0834375 1.38349515,13.1690625 C2.30582524,12.2546875 3.4257975,11.7975 4.74341193,11.7975 C5.3814147,11.7975 5.99167822,11.92125 6.5742025,12.16875 C7.15672677,12.41625 7.68377254,12.77375 8.15533981,13.24125 L20.7628294,6.06375 C20.6796117,5.8692975 20.6171983,5.65052125 20.5755895,5.40742125 C20.5339806,5.16434875 20.5131761,4.929375 20.5131761,4.7025 C20.5131761,3.39625 20.9743412,2.2859375 21.8966713,1.3715625 C22.8190014,0.4571875 23.9389736,0 25.2565881,0 C26.5742025,0 27.6941748,0.4571875 28.6165049,1.3715625 C29.538835,2.2859375 30,3.39625 30,4.7025 C30,6.00875 29.538835,7.1190625 28.6165049,8.0334375 C27.6941748,8.9478125 26.5742025,9.405 25.2565881,9.405 C24.6087656,9.405 23.9891123,9.301875 23.3976283,9.095625 C22.8061442,8.889375 22.3023578,8.5525 21.8862691,8.085 L9.27877947,15.015 C9.33425798,15.235 9.38280166,15.489375 9.42441054,15.778125 C9.46601942,16.066875 9.48682386,16.3108138 9.48682386,16.5099413 C9.48682386,16.7090962 9.46601942,16.9153462 9.42441054,17.1286912 C9.38280166,17.3420638 9.33425798,17.55875 9.27877947,17.77875 L21.8862691,24.87375 C22.3023578,24.48875 22.7877947,24.179375 23.3425798,23.945625 C23.8973648,23.711875 24.5353675,23.595 25.2565881,23.595 C26.5742025,23.595 27.6941748,24.0521875 28.6165049,24.9665625 C29.538835,25.8809375 30,26.99125 30,28.2975 C30,29.60375 29.538835,30.7140625 28.6165049,31.6284375 C27.6941748,32.5428125 26.5742025,33 25.2565881,33 Z M25.2580444,6.93 C25.8950763,6.93 26.4285714,6.71639375 26.8585298,6.28918125 C27.2884882,5.86196875 27.5034674,5.33259375 27.5034674,4.70105625 C27.5034674,4.06951875 27.2880028,3.540625 26.8570735,3.114375 C26.4261442,2.688125 25.8921637,2.475 25.2551318,2.475 C24.6180999,2.475 24.0846047,2.68860625 23.6546463,3.11581875 C23.2246879,3.54303125 23.0097087,4.07240625 23.0097087,4.70394375 C23.0097087,5.33548125 23.2251734,5.864375 23.6561026,6.290625 C24.0870319,6.716875 24.6210125,6.93 25.2580444,6.93 Z M4.74486824,18.7275 C5.38190014,18.7275 5.91539528,18.5138938 6.34535368,18.0866813 C6.77531207,17.6594688 6.99029126,17.1300938 6.99029126,16.4985563 C6.99029126,15.8670187 6.77482663,15.338125 6.34389736,14.911875 C5.9129681,14.485625 5.37898752,14.2725 4.74195562,14.2725 C4.10492372,14.2725 3.57142857,14.4861062 3.14147018,14.9133187 C2.71151179,15.3405312 2.49653259,15.8699062 2.49653259,16.5014437 C2.49653259,17.1329813 2.71199723,17.661875 3.14292649,18.088125 C3.57385576,18.514375 4.10783634,18.7275 4.74486824,18.7275 L4.74486824,18.7275 Z M25.2580444,30.525 C25.8950763,30.525 26.4285714,30.3113938 26.8585298,29.8841813 C27.2884882,29.4569688 27.5034674,28.9275938 27.5034674,28.2960563 C27.5034674,27.6645187 27.2880028,27.135625 26.8570735,26.709375 C26.4261442,26.283125 25.8921637,26.07 25.2551318,26.07 C24.6180999,26.07 24.0846047,26.2836062 23.6546463,26.7108187 C23.2246879,27.1380313 23.0097087,27.6674062 23.0097087,28.2989437 C23.0097087,28.9304813 23.2251734,29.459375 23.6561026,29.885625 C24.0870319,30.311875 24.6210125,30.525 25.2580444,30.525 Z" id="Shape"></path>
            </g>
        </g>
    </g>
</svg>